<svg width="203" height="179" viewBox="0 0 203 179" fill="none" xmlns="http://www.w3.org/2000/svg">
<path fill-rule="evenodd" clip-rule="evenodd" d="M0 28.1143V155.712C0 160.289 3.6941 164 8.25287 164H118.752C123.306 164 127 160.289 127 155.712V8.28768C127 3.71072 123.306 0 118.752 0H30.5741L0 28.1143Z" fill="#F1F1F1"/>
<path fill-rule="evenodd" clip-rule="evenodd" d="M30.5741 0V19.58C30.5741 24.2942 26.6416 28.1143 21.7886 28.1143H0L30.5741 0Z" fill="#C9C9C9"/>
<path fill-rule="evenodd" clip-rule="evenodd" d="M23.5183 60.9143H103.481V53.8857H23.5183V60.9143Z" fill="#6A6A6A"/>
<path fill-rule="evenodd" clip-rule="evenodd" d="M23.5183 77.3143H103.481V70.2857H23.5183V77.3143Z" fill="#6A6A6A"/>
<path fill-rule="evenodd" clip-rule="evenodd" d="M23.5183 93.7143H103.481V86.6857H23.5183V93.7143Z" fill="#6A6A6A"/>
<path fill-rule="evenodd" clip-rule="evenodd" d="M23.5183 110.114H103.481V103.086H23.5183V110.114Z" fill="#6A6A6A"/>
<path fill-rule="evenodd" clip-rule="evenodd" d="M23.5183 126.514H103.481V119.486H23.5183V126.514Z" fill="#6A6A6A"/>
<path fill-rule="evenodd" clip-rule="evenodd" d="M23.5183 44.5143H103.481V37.4857H23.5183V44.5143Z" fill="#6A6A6A"/>
<path d="M123.445 108.714L132.231 99.9285L148.252 115.949L139.466 124.735L123.445 108.714Z" fill="#AAB0BA"/>
<path d="M140.608 132.079C138.265 129.736 138.265 125.937 140.608 123.593L147.11 117.091C149.453 114.748 153.252 114.748 155.596 117.091L198.274 159.77C200.617 162.113 200.617 165.912 198.274 168.255L191.772 174.757C189.429 177.101 185.63 177.101 183.287 174.757L140.608 132.079Z" fill="#7D4C00"/>
<path fill-rule="evenodd" clip-rule="evenodd" d="M144.771 125.633C143.99 124.852 143.99 123.585 144.771 122.804L149.232 118.343C150.403 117.172 152.303 117.172 153.474 118.343L197.213 162.082C197.994 162.863 197.994 164.129 197.213 164.91C196.432 165.691 195.165 165.691 194.384 164.91L151.353 121.879L147.599 125.633C146.818 126.414 145.552 126.414 144.771 125.633Z" fill="#C77300"/>
<path d="M131.198 107.164L133.265 105.097L146.185 118.017L144.118 120.084L131.198 107.164Z" fill="#D9D9D9"/>
<path d="M136 75C136 95.9868 118.987 113 98 113C77.0132 113 60 95.9868 60 75C60 54.0132 77.0132 37 98 37C118.987 37 136 54.0132 136 75Z" fill="#D8F9FF"/>
<path fill-rule="evenodd" clip-rule="evenodd" d="M63.3135 90.5421C61.7667 87.0954 60.7186 83.3763 60.261 79.4767L106.271 79.4767V90.5421H63.3135Z" fill="#6A6A6A"/>
<path fill-rule="evenodd" clip-rule="evenodd" d="M106.271 112.097C103.608 112.688 100.84 113 97.9999 113C89.3816 113 81.4334 110.131 75.0583 105.296L106.271 105.296V112.097Z" fill="#6A6A6A"/>
<path fill-rule="evenodd" clip-rule="evenodd" d="M61.406 64.7229C62.5251 60.7299 64.2801 57.0027 66.555 53.6575L106.271 53.6575V64.7229H61.406Z" fill="#6A6A6A"/>
<path fill-rule="evenodd" clip-rule="evenodd" d="M126.55 75.1217C126.55 59.4215 113.822 46.694 98.1219 46.694C96.465 46.694 95.1219 45.3509 95.1219 43.694C95.1219 42.0372 96.465 40.694 98.1219 40.694C117.136 40.694 132.55 56.1078 132.55 75.1217C132.55 76.7786 131.206 78.1217 129.55 78.1217C127.893 78.1217 126.55 76.7786 126.55 75.1217Z" fill="white"/>
<path fill-rule="evenodd" clip-rule="evenodd" d="M60.847 75.1217C60.847 95.7079 77.5355 112.396 98.1217 112.396C118.708 112.396 135.396 95.7079 135.396 75.1217C135.396 54.5355 118.708 37.847 98.1217 37.847C77.5355 37.847 60.847 54.5355 60.847 75.1217ZM55 75.1217C55 98.9372 74.3063 118.243 98.1217 118.243C121.937 118.243 141.243 98.9372 141.243 75.1217C141.243 51.3062 121.937 32 98.1217 32C74.3063 32 55 51.3062 55 75.1217Z" fill="#AAB0BA"/>
</svg>
