<svg version="1.1" id="Layer_1" xmlns="http://www.w3.org/2000/svg" x="0" y="0" viewBox="0 0 130 89.5" xml:space="preserve"><style>.st0{fill:#78706a}</style><g id="_x2D_"><g id="Interne-flater-_x2F_--card-_x2F_-ingen-vedtak-_x2F_--illustrasjon"><g id="Group-5"><g id="flue" transform="rotate(22 -31.16 21.136)"><path class="st0" d="M9.4 2.1c-.4-.8-1.3-1-1.5-1-.4-.1-.8 0-1.1 0-.2-.2-.3-.4-.5-.6C5.8.3 5.1.2 4 1c-.9.6-.9 1.6-.9 2.1v.3h-.2C1.6 3.4.7 3.8.3 4.7c-.4 1.3.9 2.9 2.9 3.6.7.3 1.4.4 2 .4 1.2 0 2.2-.4 2.6-1.3.2-.4.1-1-.2-1.5.4-.2.7-.4 1-.7 1-1.2 1.2-2.3.8-3.1zM4.1 3.6v-.1-.4c0-.6 0-1 .4-1.3.6-.4 1-.4 1.1-.4 0 0 .1.1.1.2-.5.5-1 1.1-1.5 1.9l-.1.1c0 .1 0 .1 0 0zM6.9 7c-.1.4-.8.7-1.6.7-.5 0-1.1-.1-1.7-.3-.8-.4-1.5-.8-1.9-1.3-.4-.5-.5-.9-.4-1.1.1-.4.7-.7 1.6-.7.5 0 1.1.1 1.7.3.4.2.8.4 1.1.7.4.2.7.4.9.7.3.4.4.8.3 1zm.7-2.5c-.2.2-.5.3-.8.3-.2-.1-.4-.3-.5-.4l-.6-.3c-.1-.1-.2-.1-.3-.2.3-.4.6-.8 1-1.1.2-.1.4-.3.6-.4.3-.1.5-.1.8-.1.1 0 .5.1.7.4 0 .4-.3 1-.9 1.8z" id="Shape"/><path class="st0" d="M4.1 3.5v0z" id="Path"/></g><path d="M69.5 0c27.1 0 49.1 22 49.1 49.1 0 15.7-18.8 38.5-18.8 38.5H39.1S20.4 64.6 20.4 49c0-27 22-49 49.1-49z" opacity=".7" fill="#e7e9e9"/><path fill="#8f8b87" d="M34.1 63.5H104V42.8H34.1z"/><path class="st0" d="M109.4 83.8c.9 1.5 3 .8 3-.9v-26c0-.3-.1-.5-.2-.8L104.6 43c-.3-.4-.9-.3-.9.3v30c0 .4.1.8.3 1.1l5.4 9.4zM33.6 43l-7.1 13.1c-.1.2-.2.5-.2.8v26c0 1.7 2 2.4 2.8.9l5.1-9.4c.2-.3.3-.7.3-1.1v-30c0-.6-.6-.7-.9-.3z"/><path class="st0" d="M89.1 63.9c-.2 0-.4-.1-.6-.2l-1.8-1.5c-.4-.3-.4-.9-.1-1.3.3-.4.9-.4 1.3-.1l1.8 1.5c.4.3.4.9.1 1.3-.2.2-.4.3-.7.3zm-5-5.1c-.2 0-.5-.1-.7-.3l-1.6-1.8c-.3-.4-.3-.9.1-1.3.4-.3.9-.3 1.3.1l1.6 1.8c.3.4.3.9-.1 1.3-.2.1-.4.2-.6.2zm-4.8-5.4c-.2 0-.5-.1-.7-.3l-.5-.6-.7-1.8c-.2-.5 0-1 .5-1.2.5-.2 1 0 1.2.5l.6 1.5.3.4c.3.4.3.9-.1 1.3-.1.1-.4.2-.6.2zm-2.8-6.6c-.4 0-.7-.2-.8-.6-.3-.8-.6-1.5-.9-2.2-.2-.5.1-1 .5-1.2.5-.2 1 .1 1.2.5.3.7.6 1.4.9 2.2.2.5-.1 1-.5 1.2-.2.1-.3.1-.4.1zM74 40.1c-.4 0-.7-.2-.8-.6-.2-.5-.4-1-.5-1.4-.6.1-1.1.2-1.7.3-.5.1-1-.3-1-.7-.1-.5.3-1 .7-1 .7-.1 1.3-.2 2-.4.1-.1.2-.1.3-.2.5-.2 1 .1 1.1.6.2.6.5 1.4.8 2.2.2.5-.1 1-.5 1.2H74zm-17.6-.9c-.5 0-.9-.4-.9-.9s.4-.9.9-.9h2.4c.5 0 .9.4.9.9s-.4.9-.9.9h-2.4zm-4.7-.1c-.1 0-.1 0 0 0-.9-.1-1.7-.1-2.5-.2-.5-.1-.8-.5-.8-1 .1-.5.5-.8 1-.8.8.1 1.6.2 2.4.2.5 0 .9.5.8 1-.1.4-.5.8-.9.8zm11.9 0c-.5 0-.9-.4-.9-.9s.4-.9.9-.9c.8 0 1.6-.1 2.4-.1.5 0 .9.3 1 .8 0 .5-.3.9-.8 1-.9 0-1.7 0-2.6.1.1 0 0 0 0 0zm-19.1-1h-.2c-.8-.1-1.6-.3-2.4-.5-.5-.1-.8-.6-.7-1.1.1-.5.6-.8 1.1-.7.8.2 1.6.3 2.3.5.5.1.8.6.7 1 0 .5-.3.8-.8.8zm33.2-1.4c-.4 0-.7-.2-.9-.6-.2-.5.1-1 .6-1.1.7-.2 1.5-.5 2.2-.8.5-.2 1 .1 1.2.5.2.5-.1 1-.5 1.2-.8.3-1.5.5-2.3.8h-.3zm-40.2-.2h-.2c-.8-.2-1.6-.4-2.3-.6a.8.8 0 01-.6-1.1c.1-.5.6-.8 1.1-.6.8.2 1.5.4 2.3.6.5.1.8.6.6 1.1-.1.4-.5.6-.9.6zm-6.9-2h-.3c-.8-.3-1.5-.5-2.3-.8-.5-.2-.7-.7-.5-1.2.2-.5.7-.7 1.2-.5.7.3 1.5.5 2.2.8.5.2.7.7.6 1.1-.2.3-.5.6-.9.6zm53.9-.3c-.4 0-.7-.2-.8-.6-.2-.5 0-1 .5-1.2.8-.3 1.5-.6 2.2-.9.5-.2 1 0 1.2.5.2.5 0 1-.5 1.2-.7.3-1.5.6-2.2.9-.2.1-.3.1-.4.1zm-12.1-1.1c-.5 0-.9-.4-.9-.9v-2.4c0-.5.4-.9.9-.9s.9.4.9.9v2.4c0 .5-.4.9-.9.9zm-48.5-1.2c-.1 0-.2 0-.4-.1-.8-.3-1.5-.7-2.2-1-.4-.2-.6-.8-.4-1.2.2-.4.7-.6 1.2-.4.7.3 1.4.7 2.2 1 .5.2.7.7.5 1.2-.2.3-.5.5-.9.5zm67.1-.7c-.3 0-.6-.2-.8-.5-.2-.4 0-1 .4-1.2.7-.4 1.4-.7 2.1-1.1.4-.2 1-.1 1.2.3.2.4.1 1-.3 1.2-.7.4-1.4.8-2.1 1.1-.2.2-.4.2-.5.2zm-73.5-2.6c-.2 0-.3 0-.5-.1-.8-.5-1.5-.9-2.1-1.4-.4-.3-.5-.9-.2-1.3s.9-.5 1.3-.2c.5.4 1.2.9 1.9 1.3.4.3.6.8.3 1.2-.1.4-.4.5-.7.5zm78.4-1.9h-.1c-.5-.1-.8-.5-.8-1 .1-.5.1-.9.1-1.4v-.8c-.1-.5.3-.9.8-1 .5 0 .9.3 1 .8 0 .3.1.7.1 1 0 .5 0 1.1-.1 1.6s-.5.8-1 .8zM73 26c-.1 0-.3 0-.4-.1-.4-.2-.6-.8-.4-1.2.4-.7.8-1.4 1.4-2.2.3-.4.9-.4 1.3-.1.4.3.4.9.1 1.3-.6.8-1 1.4-1.2 1.8-.2.4-.5.5-.8.5zm4.8-5.2c-.3 0-.6-.1-.8-.4-.3-.4-.2-1 .3-1.2.7-.5 1.5-.9 2.2-1.2.5-.2 1 0 1.2.5.2.5 0 1-.5 1.2-.7.3-1.3.7-2 1.1h-.4zm15.9-.5c-.2 0-.4-.1-.5-.2-.5-.4-1.2-.7-1.9-1-.5-.2-.7-.7-.5-1.1.2-.5.7-.7 1.1-.5.9.3 1.7.7 2.4 1.2.4.3.5.9.2 1.3-.2.1-.5.3-.8.3zm-9.2-1.9c-.5 0-.8-.3-.9-.8-.1-.5.3-.9.8-1 .8-.1 1.7-.1 2.5-.1.5 0 .9.4.9.9s-.4.9-.9.9c-.8 0-1.6.1-2.4.1.1 0 .1 0 0 0z" id="Path-18"/><path d="M55.5 61.3c.3.5.8.8 1.4.9l12.2.1h11.3c.8 0 1.6-.4 2.1-1.2l2.5-3.9c.2-.2.4-.4.7-.4h25.5c.7 0 1.3.6 1.3 1.3v28.3c0 .7-.6 1.3-1.2 1.3H27.6c-.8 0-1.3-.6-1.3-1.3V58c0-.7.6-1.3 1.3-1.3h24.9c.3 0 .6.2.7.4l2.3 4.2z" fill="#d8d8d8" id="Fill-8"/></g></g></g></svg>
