<svg width="54" height="16" viewBox="0 0 54 16" fill="none" xmlns="http://www.w3.org/2000/svg">
<g id="NAV-logo">
<path id="Vector" fill-rule="evenodd" clip-rule="evenodd" d="M53.5695 7.08214e-05H47.9492C47.9492 7.08214e-05 47.5619 7.08465e-05 47.4252 0.342687L44.3155 9.86758L41.2083 0.342687C41.0708 0.000914718 40.6817 0.000914743 40.6817 0.000914743H29.8767C29.7632 0.00178707 29.6547 0.0470647 29.5742 0.127042C29.4938 0.20702 29.4478 0.315333 29.4463 0.428763V3.66336C29.4463 1.09796 26.718 0.000914743 25.1197 0.000914743C21.5417 0.000914743 19.1467 2.35872 18.4007 5.94438C18.3602 3.56547 18.1628 2.71315 17.5222 1.84058C17.2277 1.41273 16.8033 1.05408 16.3408 0.756189C15.3872 0.197539 14.5307 0.000914743 12.6919 0.000914743H10.5315C10.5315 0.000914743 10.1417 0.000914718 10.0041 0.342687L8.0387 5.21526V0.428763C8.0376 0.315776 7.99229 0.207713 7.91247 0.127737C7.83265 0.0477601 7.72468 0.00223356 7.61169 0.000914743H2.61338C2.61338 0.000914743 2.22773 0.000914718 2.0868 0.342687L0.0446046 5.40935C0.0446046 5.40935 -0.159615 5.91568 0.306208 5.91568H2.22773V15.5697C2.22773 15.8094 2.41591 16.0001 2.65642 16.0001H7.61001C7.66641 16 7.72225 15.9887 7.77432 15.9671C7.82639 15.9454 7.87368 15.9136 7.91349 15.8737C7.95329 15.8337 7.98484 15.7863 8.00632 15.7341C8.02781 15.682 8.03881 15.6261 8.0387 15.5697V5.91568H9.97034C11.0784 5.91568 11.3121 5.94606 11.7433 6.14691C12.0033 6.24564 12.237 6.44395 12.3653 6.67265C12.6269 7.16463 12.6919 7.75534 12.6919 9.49796V15.5697C12.6919 15.8094 12.8843 16.0001 13.1222 16.0001H17.8699C17.8699 16.0001 18.4066 16.0001 18.6184 15.4684L19.6708 12.8667C21.0699 14.8279 23.3729 15.9992 26.2353 15.9992H26.8606C26.8606 15.9992 27.4007 15.9992 27.6142 15.4693L29.4471 10.9283V15.5697C29.4471 15.6838 29.4925 15.7933 29.5732 15.874C29.6539 15.9547 29.7634 16.0001 29.8775 16.0001H34.7239C34.7239 16.0001 35.2589 16.0001 35.4733 15.4684C35.4733 15.4684 37.4117 10.6541 37.4193 10.6178H37.4227C37.4969 10.2169 36.9914 10.2169 36.9914 10.2169H35.2615V1.9545L40.7045 15.4693C40.9163 15.9992 41.4522 15.9992 41.4522 15.9992H47.1788C47.1788 15.9992 47.7172 15.9992 47.9298 15.4693L53.9644 0.519058C54.1729 0.000914692 53.5687 0.000914743 53.5687 0.000914743L53.5695 7.08214e-05ZM29.4454 10.2178H26.1898C25.5664 10.2178 24.9687 9.97018 24.5279 9.52943C24.0872 9.08868 23.8395 8.4909 23.8395 7.86758C23.8395 7.24427 24.0872 6.64648 24.5279 6.20573C24.9687 5.76498 25.5664 5.51737 26.1898 5.51737H27.1003C27.723 5.51916 28.3195 5.76771 28.7593 6.20856C29.199 6.64941 29.4461 7.2466 29.4463 7.86927L29.4454 10.2178Z" fill="#C30000"/>
</g>
</svg>
