<svg width="88" height="87" viewBox="0 0 88 87" fill="none" xmlns="http://www.w3.org/2000/svg">
    <g filter="url(#filter0_d)">
        <path fill-rule="evenodd" clip-rule="evenodd"
              d="M24.4867 78.1569C35.5167 78.1569 44.4867 69.1869 44.4867 58.1569C44.4867 55.0835 43.7633 52.0369 42.39 49.2769L57.82 33.8469L64.4867 40.5135L70.1767 34.8235L63.51 28.1569L67.82 23.8469L76.1533 32.1802L83.51 24.8235L75.1767 16.4902L79 12.6702C81.4867 10.1835 81.4867 6.14019 79 3.64686C76.59 1.23686 72.3867 1.23686 69.9767 3.64686L33.37 40.2535C30.61 38.8802 27.5633 38.1569 24.49 38.1569C13.46 38.1569 4.49 47.1269 4.49 58.1569C4.49 69.1869 13.46 78.1569 24.4867 78.1569ZM24.4867 48.1569C30 48.1569 34.4867 52.6435 34.4867 58.1569C34.4867 63.6702 30 68.1569 24.4867 68.1569C18.9733 68.1569 14.4867 63.6702 14.4867 58.1569C14.4867 52.6435 18.9733 48.1569 24.4867 48.1569Z"
              fill="#FFBD66"/>
    </g>
    <defs>
        <filter id="filter0_d" x="0" y="0" width="88" height="88" filterUnits="userSpaceOnUse"
                color-interpolation-filters="sRGB">
            <feFlood flood-opacity="0" result="BackgroundImageFix"/>
            <feColorMatrix in="SourceAlpha" type="matrix" values="0 0 0 0 0 0 0 0 0 0 0 0 0 0 0 0 0 0 127 0"
                           result="hardAlpha"/>
            <feOffset dy="4"/>
            <feGaussianBlur stdDeviation="2"/>
            <feColorMatrix type="matrix" values="0 0 0 0 0 0 0 0 0 0 0 0 0 0 0 0 0 0 0.25 0"/>
            <feBlend mode="normal" in2="BackgroundImageFix" result="effect1_dropShadow"/>
            <feBlend mode="normal" in="SourceGraphic" in2="effect1_dropShadow" result="shape"/>
        </filter>
    </defs>
</svg>
